# xmcd
#
# Track frame offsets:
#	150
#	13299
#	36143
#	46421
#	66516
#	79493
#	96208
#	113346
#	134877
#	145173
#	165231
#	182646
#	206902
#
# Disc length: 2937 seconds
#
# Revision: 3
# Processed by: cddbd v1.5.2PL0 Copyright (c) Steve Scherf et al.
# Submitted via: audiograbber 1.83.01
#
DISCID=bd0b770d
DTITLE=Black Cat Bone - Beatrice
DYEAR=2000
DGENRE=R&B
TTITLE0=I Sent For My Baby
TTITLE1=My Baby
TTITLE2=Good Morning Little Schoolgirl
TTITLE3=Blues With A Feeling
TTITLE4=Keep It To Yourselfe
TTITLE5=Key To The Highway
TTITLE6=I Can't Be Satisfied
TTITLE7=Beatrice
TTITLE8=Don't Give Me The Blues
TTITLE9=Talk To Me Baby
TTITLE10=I'm Ready
TTITLE11=Little Red Rooster
TTITLE12=Texas Swingin'
EXTD=
EXTT0=
EXTT1=
EXTT2=
EXTT3=
EXTT4=
EXTT5=
EXTT6=
EXTT7=
EXTT8=
EXTT9=
EXTT10=
EXTT11=
EXTT12=
PLAYORDER=
